<svg width="30" height="30" viewBox="0 0 30 30" fill="none" xmlns="http://www.w3.org/2000/svg">
<path fill-rule="evenodd" clip-rule="evenodd" d="M0 0H30V30H0V0Z" fill="white"/>
<path fill-rule="evenodd" clip-rule="evenodd" d="M1.14572 27.5709H1.05997C1.05997 27.5281 1.03849 27.4636 1.03849 27.442C1.03849 27.4207 1.03849 27.3779 0.974055 27.3779H0.845187V27.5709H0.780753V27.1201H0.974055C1.05997 27.1201 1.12424 27.1418 1.12424 27.2274C1.12424 27.2918 1.10277 27.3135 1.08144 27.3346C1.10292 27.3563 1.12424 27.3777 1.12424 27.4207V27.5064C1.12424 27.5281 1.12424 27.5281 1.14572 27.5281V27.5709ZM1.05997 27.249C1.05997 27.1846 1.01701 27.1846 0.995533 27.1846H0.845187V27.3134H0.974055C1.01701 27.3134 1.05997 27.2918 1.05997 27.249V27.249ZM1.42494 27.3348C1.42494 27.0773 1.21031 26.8624 0.931099 26.8624C0.673519 26.8624 0.45874 27.0773 0.45874 27.3348C0.45874 27.6138 0.673519 27.8288 0.931099 27.8288C1.21016 27.8286 1.42494 27.6138 1.42494 27.3348ZM1.3605 27.3348C1.3605 27.571 1.16736 27.7427 0.931099 27.7427C0.694842 27.7427 0.523174 27.5709 0.523174 27.3348C0.523174 27.1201 0.694997 26.9268 0.931099 26.9268C1.1672 26.9268 1.3605 27.1201 1.3605 27.3348ZM27.8117 18.661C27.8117 19.3051 27.4037 19.6054 26.6736 19.6054H25.2784V18.9612H26.6736C26.8025 18.9612 26.9099 18.9399 26.953 18.8971C26.9958 18.8539 27.0388 18.7895 27.0388 18.7038C27.0388 18.6177 26.996 18.5319 26.953 18.4891C26.9099 18.446 26.8241 18.4247 26.6953 18.4247C26.0299 18.4031 25.1924 18.446 25.1924 17.5015C25.1924 17.0719 25.4715 16.5995 26.2229 16.5995H27.6613V17.2437H26.3301C26.2016 17.2437 26.1155 17.2437 26.0511 17.2865C25.9867 17.351 25.9439 17.4154 25.9439 17.5228C25.9439 17.6302 26.0083 17.6946 26.094 17.7377C26.1801 17.759 26.266 17.7805 26.3734 17.7805H26.7597C27.1676 17.7805 27.4254 17.8663 27.5972 18.0168C27.7257 18.167 27.8117 18.3604 27.8117 18.661V18.661ZM24.7844 18.0168C24.6125 17.8663 24.3548 17.7805 23.9469 17.7805H23.5606C23.4534 17.7805 23.3673 17.7589 23.2815 17.7377C23.1955 17.6946 23.1313 17.6302 23.1313 17.5228C23.1313 17.4154 23.1527 17.351 23.2386 17.2865C23.303 17.2437 23.3888 17.2437 23.5176 17.2437H24.8488V16.5995H23.4104C22.6373 16.5995 22.3796 17.0719 22.3796 17.5015C22.3796 18.4459 23.2171 18.4031 23.8828 18.4247C24.0113 18.4247 24.0974 18.446 24.1402 18.4891C24.183 18.5319 24.2262 18.6177 24.2262 18.7038C24.2262 18.7895 24.1831 18.8539 24.1402 18.8971C24.0757 18.9399 23.99 18.9612 23.8611 18.9612H22.4655V19.6054H23.8611C24.5909 19.6054 24.999 19.305 24.999 18.661C24.999 18.3604 24.9132 18.167 24.7844 18.0168V18.0168ZM22.0361 18.983H20.3403V18.3817H21.9933V17.7808H20.3403V17.2224H22.0361V16.5999H19.6317V19.6055H22.0361V18.983ZM18.8586 16.7502C18.6224 16.6213 18.3433 16.5997 17.9783 16.5997H16.3253V19.6054H17.0551V18.5105H17.8282C18.0856 18.5105 18.2361 18.5321 18.3435 18.6393C18.4723 18.7895 18.4723 19.0472 18.4723 19.2406V19.6054H19.1806V19.0256C19.1806 18.7466 19.1593 18.6177 19.0734 18.4675C19.009 18.3814 18.8804 18.2742 18.7086 18.2098C18.9016 18.1456 19.2239 17.8879 19.2239 17.4154C19.2238 17.0721 19.0949 16.8788 18.8586 16.7502V16.7502ZM14.7794 16.5997H12.482L11.5588 17.5874L10.6785 16.5997H7.78007V19.6054H10.6357L11.5589 18.6177L12.4392 19.6054H13.8348V18.5965H14.7366C15.3591 18.5965 15.982 18.4247 15.982 17.5874C15.9818 16.7715 15.3377 16.5997 14.7794 16.5997ZM18.2789 17.8451C18.1716 17.8879 18.0643 17.8879 17.9354 17.8879L17.0551 17.9095V17.2222H17.9354C18.0643 17.2222 18.1931 17.2222 18.2789 17.2867C18.365 17.3298 18.4291 17.4155 18.4291 17.5444C18.4291 17.6733 18.365 17.7807 18.2789 17.8451V17.8451ZM14.7794 17.9953H13.8347V17.2222H14.7794C15.0371 17.2222 15.2088 17.3298 15.2088 17.5874C15.2088 17.8451 15.037 17.9953 14.7794 17.9953ZM12.0097 18.1025L13.126 16.9219V19.3479L12.0097 18.1025ZM10.2706 18.983H8.48853V18.3817H10.0773V17.7808H8.48853V17.2224H10.2921L11.0864 18.1027L10.2706 18.983V18.983ZM25.8148 14.4312H24.7844L23.4317 12.1768V14.4312H21.972L21.6926 13.7655H20.1898L19.9107 14.4312H19.0733C18.7298 14.4312 18.2789 14.3453 18.0215 14.0876C17.7852 13.83 17.6563 13.4865 17.6563 12.9497C17.6563 12.4988 17.7208 12.0909 18.0426 11.7689C18.2573 11.5326 18.6439 11.4254 19.1375 11.4254H19.8245V12.0696H19.1375C18.8801 12.0696 18.7296 12.1125 18.5794 12.2414C18.4506 12.3703 18.3861 12.6064 18.3861 12.9284C18.3861 13.2504 18.4506 13.4866 18.5794 13.637C18.6867 13.7442 18.8801 13.7872 19.0731 13.7872H19.3953L20.4257 11.4255H21.4993L22.7016 14.2595V11.4254H23.8182L25.0849 13.508V11.4254H25.8147V14.4312H25.8148V14.4312ZM17.2914 11.4254H16.5616V14.4312H17.2914V11.4254V11.4254ZM15.7669 11.5543C15.5306 11.4254 15.2732 11.4254 14.9083 11.4254H13.2549V14.4312H13.9634V13.3361H14.7363C14.994 13.3361 15.1658 13.3576 15.2731 13.465C15.4019 13.6154 15.3803 13.8731 15.3803 14.0448V14.4312H16.1101V13.83C16.1101 13.5724 16.0888 13.4435 15.9815 13.2932C15.9171 13.2073 15.7882 13.0999 15.638 13.0356C15.831 12.9497 16.1533 12.7136 16.1533 12.2412C16.1535 11.8977 16.003 11.7044 15.7669 11.5543ZM12.7396 13.8087H11.0649V13.2074H12.7181V12.5849H11.0649V12.0481H12.7396V11.4255H10.335V14.4314H12.7396V13.8087ZM9.79822 11.4254H8.6174L7.73711 13.465L6.79239 11.4254H5.63305V14.2594L4.40928 11.4254H3.33585L2.04764 14.4312H2.82053L3.09959 13.7655H4.60242L4.88148 14.4312H6.34151V12.0696L7.39347 14.4312H8.01601L9.06812 12.0696V14.4312H9.79806V11.4254H9.79822ZM21.4352 13.1215L20.9412 11.9407L20.4475 13.1215H21.4352ZM15.2088 12.6493C15.1016 12.7138 14.9942 12.7138 14.8438 12.7138H13.9634V12.0482H14.8437C14.9725 12.0482 15.1226 12.0482 15.2086 12.0912C15.2944 12.1556 15.3375 12.2415 15.3375 12.3703C15.3375 12.499 15.2945 12.6062 15.2088 12.6493V12.6493ZM3.35717 13.1215L3.85101 11.9407L4.34484 13.1215H3.35717V13.1215ZM27.64 2H2.02601V12.821L2.90629 10.8243H4.77409L5.03183 11.3182V10.8243H7.2218L7.71563 11.8977L8.18799 10.8243H15.1658C15.4877 10.8243 15.7667 10.8887 15.9817 11.0604V10.8243H17.8924V11.0604C18.2143 10.8886 18.6222 10.8243 19.0947 10.8243H21.8643L22.122 11.3182V10.8243H24.1617L24.4623 11.3182V10.8243H26.4589V15.0324H24.4409L24.0546 14.3884V15.0324H21.5424L21.2634 14.3455H20.6405L20.3615 15.0324H19.0519C18.5366 15.0324 18.15 14.9036 17.8926 14.7749V15.0324H14.7794V14.0662C14.7794 13.9374 14.7579 13.9159 14.672 13.9159H14.5648V15.0323H8.55296V14.4955L8.33834 15.0323H7.07161L6.85698 14.517V15.0323H4.43076L4.17318 14.3453H3.55047L3.27142 15.0323H2.02601V27.7212H27.64V20.0133C27.3609 20.1422 26.9743 20.2066 26.5879 20.2066H24.7199V19.9489C24.5053 20.1208 24.1187 20.2066 23.7539 20.2066H17.871V19.2406C17.871 19.1117 17.8496 19.1117 17.7421 19.1117H17.6349V20.2066H15.7025V19.0687C15.3806 19.2189 15.0155 19.2189 14.6935 19.2189H14.4787V20.2066H12.1171L11.5589 19.5624L10.9364 20.2066H7.13589V15.9986H11.0005L11.5588 16.6425L12.16 15.9986H14.7579C15.0583 15.9986 15.5523 16.0414 15.7669 16.2561V15.9986H18.0856C18.3218 15.9986 18.7729 16.0414 19.0733 16.2561V15.9986H22.5729V16.2562C22.7662 16.0844 23.1313 15.9988 23.4532 15.9988H25.4069V16.2562C25.6218 16.106 25.9222 15.9988 26.3088 15.9988H27.64V2V2Z" fill="#0077A6"/>
</svg>
